<?xml version="1.0" encoding="iso-8859-1"?>
<!-- Generator: Adobe Illustrator 19.0.0, SVG Export Plug-In . SVG Version: 6.00 Build 0)  -->
<svg version="1.1" id="Layer_1" xmlns="http://www.w3.org/2000/svg" xmlns:xlink="http://www.w3.org/1999/xlink" x="0px" y="0px"
	 viewBox="0 0 480 480" style="enable-background:new 0 0 480 480;" xml:space="preserve">
<g>
	<path style="fill:#99B5C1;" d="M30.4,464.8c0,8-6.4,15.2-15.2,15.2l0,0c-8,0-15.2-6.4-15.2-15.2V15.2C0,7.2,7.2,0,15.2,0l0,0
		c8,0,15.2,6.4,15.2,15.2V464.8z"/>
	<path style="fill:#99B5C1;" d="M464.8,449.6c8,0,15.2,6.4,15.2,15.2l0,0c0,8-6.4,15.2-15.2,15.2H15.2c-8,0-15.2-6.4-15.2-15.2l0,0
		c0-8,6.4-15.2,15.2-15.2H464.8z"/>
</g>
<g>
	<circle style="fill:#C6DDE5;" cx="66.4" cy="30.4" r="5.6"/>
	<circle style="fill:#C6DDE5;" cx="66.4" cy="68.8" r="5.6"/>
	<circle style="fill:#C6DDE5;" cx="66.4" cy="106.4" r="5.6"/>
	<circle style="fill:#C6DDE5;" cx="66.4" cy="144.8" r="5.6"/>
	<circle style="fill:#C6DDE5;" cx="66.4" cy="183.2" r="5.6"/>
	<circle style="fill:#C6DDE5;" cx="66.4" cy="221.6" r="5.6"/>
	<circle style="fill:#C6DDE5;" cx="66.4" cy="260" r="5.6"/>
	<circle style="fill:#C6DDE5;" cx="66.4" cy="298.4" r="5.6"/>
	<circle style="fill:#C6DDE5;" cx="66.4" cy="336.8" r="5.6"/>
	<circle style="fill:#C6DDE5;" cx="66.4" cy="374.4" r="5.6"/>
	<circle style="fill:#C6DDE5;" cx="66.4" cy="412.8" r="5.6"/>
	<circle style="fill:#C6DDE5;" cx="98.4" cy="30.4" r="5.6"/>
	<circle style="fill:#C6DDE5;" cx="98.4" cy="68.8" r="5.6"/>
	<circle style="fill:#C6DDE5;" cx="98.4" cy="106.4" r="5.6"/>
	<circle style="fill:#C6DDE5;" cx="98.4" cy="144.8" r="5.6"/>
	<circle style="fill:#C6DDE5;" cx="98.4" cy="183.2" r="5.6"/>
	<circle style="fill:#C6DDE5;" cx="98.4" cy="221.6" r="5.6"/>
	<circle style="fill:#C6DDE5;" cx="98.4" cy="260" r="5.6"/>
	<circle style="fill:#C6DDE5;" cx="98.4" cy="298.4" r="5.6"/>
	<circle style="fill:#C6DDE5;" cx="98.4" cy="336.8" r="5.6"/>
	<circle style="fill:#C6DDE5;" cx="98.4" cy="374.4" r="5.6"/>
	<circle style="fill:#C6DDE5;" cx="98.4" cy="412.8" r="5.6"/>
	<circle style="fill:#C6DDE5;" cx="130.4" cy="30.4" r="5.6"/>
	<circle style="fill:#C6DDE5;" cx="130.4" cy="68.8" r="5.6"/>
	<circle style="fill:#C6DDE5;" cx="130.4" cy="106.4" r="5.6"/>
	<circle style="fill:#C6DDE5;" cx="130.4" cy="144.8" r="5.6"/>
	<circle style="fill:#C6DDE5;" cx="130.4" cy="183.2" r="5.6"/>
	<circle style="fill:#C6DDE5;" cx="130.4" cy="221.6" r="5.6"/>
	<circle style="fill:#C6DDE5;" cx="130.4" cy="260" r="5.6"/>
	<circle style="fill:#C6DDE5;" cx="130.4" cy="298.4" r="5.6"/>
	<circle style="fill:#C6DDE5;" cx="130.4" cy="336.8" r="5.6"/>
	<circle style="fill:#C6DDE5;" cx="130.4" cy="374.4" r="5.6"/>
	<circle style="fill:#C6DDE5;" cx="130.4" cy="412.8" r="5.6"/>
	<circle style="fill:#C6DDE5;" cx="162.4" cy="30.4" r="5.6"/>
	<circle style="fill:#C6DDE5;" cx="162.4" cy="68.8" r="5.6"/>
	<circle style="fill:#C6DDE5;" cx="162.4" cy="106.4" r="5.6"/>
	<circle style="fill:#C6DDE5;" cx="162.4" cy="144.8" r="5.6"/>
	<circle style="fill:#C6DDE5;" cx="162.4" cy="183.2" r="5.6"/>
	<circle style="fill:#C6DDE5;" cx="162.4" cy="221.6" r="5.6"/>
	<circle style="fill:#C6DDE5;" cx="162.4" cy="260" r="5.6"/>
	<circle style="fill:#C6DDE5;" cx="162.4" cy="298.4" r="5.6"/>
	<circle style="fill:#C6DDE5;" cx="162.4" cy="336.8" r="5.6"/>
	<circle style="fill:#C6DDE5;" cx="162.4" cy="374.4" r="5.6"/>
	<circle style="fill:#C6DDE5;" cx="162.4" cy="412.8" r="5.6"/>
	<circle style="fill:#C6DDE5;" cx="195.2" cy="30.4" r="5.6"/>
	<circle style="fill:#C6DDE5;" cx="195.2" cy="68.8" r="5.6"/>
	<circle style="fill:#C6DDE5;" cx="195.2" cy="106.4" r="5.6"/>
	<circle style="fill:#C6DDE5;" cx="195.2" cy="144.8" r="5.6"/>
	<circle style="fill:#C6DDE5;" cx="195.2" cy="183.2" r="5.6"/>
	<circle style="fill:#C6DDE5;" cx="195.2" cy="221.6" r="5.6"/>
	<circle style="fill:#C6DDE5;" cx="195.2" cy="260" r="5.6"/>
	<circle style="fill:#C6DDE5;" cx="195.2" cy="298.4" r="5.6"/>
	<circle style="fill:#C6DDE5;" cx="195.2" cy="336.8" r="5.6"/>
	<circle style="fill:#C6DDE5;" cx="195.2" cy="374.4" r="5.6"/>
	<circle style="fill:#C6DDE5;" cx="195.2" cy="412.8" r="5.6"/>
	<circle style="fill:#C6DDE5;" cx="227.2" cy="30.4" r="5.6"/>
	<circle style="fill:#C6DDE5;" cx="227.2" cy="68.8" r="5.6"/>
	<circle style="fill:#C6DDE5;" cx="227.2" cy="106.4" r="5.6"/>
	<circle style="fill:#C6DDE5;" cx="227.2" cy="144.8" r="5.6"/>
	<circle style="fill:#C6DDE5;" cx="227.2" cy="183.2" r="5.6"/>
	<circle style="fill:#C6DDE5;" cx="227.2" cy="221.6" r="5.6"/>
	<circle style="fill:#C6DDE5;" cx="227.2" cy="260" r="5.6"/>
	<circle style="fill:#C6DDE5;" cx="227.2" cy="298.4" r="5.6"/>
	<circle style="fill:#C6DDE5;" cx="227.2" cy="336.8" r="5.6"/>
	<circle style="fill:#C6DDE5;" cx="227.2" cy="374.4" r="5.6"/>
	<circle style="fill:#C6DDE5;" cx="227.2" cy="412.8" r="5.6"/>
	<circle style="fill:#C6DDE5;" cx="259.2" cy="30.4" r="5.6"/>
	<circle style="fill:#C6DDE5;" cx="259.2" cy="68.8" r="5.6"/>
	<circle style="fill:#C6DDE5;" cx="259.2" cy="106.4" r="5.6"/>
	<circle style="fill:#C6DDE5;" cx="259.2" cy="144.8" r="5.6"/>
	<circle style="fill:#C6DDE5;" cx="259.2" cy="183.2" r="5.6"/>
	<circle style="fill:#C6DDE5;" cx="259.2" cy="221.6" r="5.6"/>
	<circle style="fill:#C6DDE5;" cx="259.2" cy="260" r="5.6"/>
	<circle style="fill:#C6DDE5;" cx="259.2" cy="298.4" r="5.6"/>
	<circle style="fill:#C6DDE5;" cx="259.2" cy="336.8" r="5.6"/>
	<circle style="fill:#C6DDE5;" cx="259.2" cy="374.4" r="5.6"/>
	<circle style="fill:#C6DDE5;" cx="259.2" cy="412.8" r="5.6"/>
	<circle style="fill:#C6DDE5;" cx="291.2" cy="30.4" r="5.6"/>
	<circle style="fill:#C6DDE5;" cx="291.2" cy="68.8" r="5.6"/>
	<circle style="fill:#C6DDE5;" cx="291.2" cy="106.4" r="5.6"/>
	<circle style="fill:#C6DDE5;" cx="291.2" cy="144.8" r="5.6"/>
	<circle style="fill:#C6DDE5;" cx="291.2" cy="183.2" r="5.6"/>
	<circle style="fill:#C6DDE5;" cx="291.2" cy="221.6" r="5.6"/>
	<circle style="fill:#C6DDE5;" cx="291.2" cy="260" r="5.6"/>
	<circle style="fill:#C6DDE5;" cx="291.2" cy="298.4" r="5.6"/>
	<circle style="fill:#C6DDE5;" cx="291.2" cy="336.8" r="5.6"/>
	<circle style="fill:#C6DDE5;" cx="291.2" cy="374.4" r="5.6"/>
	<circle style="fill:#C6DDE5;" cx="291.2" cy="412.8" r="5.6"/>
	<circle style="fill:#C6DDE5;" cx="323.2" cy="30.4" r="5.6"/>
	<circle style="fill:#C6DDE5;" cx="323.2" cy="68.8" r="5.6"/>
	<circle style="fill:#C6DDE5;" cx="323.2" cy="106.4" r="5.6"/>
	<circle style="fill:#C6DDE5;" cx="323.2" cy="144.8" r="5.6"/>
	<circle style="fill:#C6DDE5;" cx="323.2" cy="183.2" r="5.6"/>
	<circle style="fill:#C6DDE5;" cx="323.2" cy="221.6" r="5.6"/>
	<circle style="fill:#C6DDE5;" cx="323.2" cy="260" r="5.6"/>
	<circle style="fill:#C6DDE5;" cx="323.2" cy="298.4" r="5.6"/>
	<circle style="fill:#C6DDE5;" cx="323.2" cy="336.8" r="5.6"/>
	<circle style="fill:#C6DDE5;" cx="323.2" cy="374.4" r="5.6"/>
	<circle style="fill:#C6DDE5;" cx="323.2" cy="412.8" r="5.6"/>
	<circle style="fill:#C6DDE5;" cx="356" cy="30.4" r="5.6"/>
	<circle style="fill:#C6DDE5;" cx="356" cy="68.8" r="5.6"/>
	<circle style="fill:#C6DDE5;" cx="356" cy="106.4" r="5.6"/>
	<circle style="fill:#C6DDE5;" cx="356" cy="144.8" r="5.6"/>
	<circle style="fill:#C6DDE5;" cx="356" cy="183.2" r="5.6"/>
	<circle style="fill:#C6DDE5;" cx="356" cy="221.6" r="5.6"/>
	<circle style="fill:#C6DDE5;" cx="356" cy="260" r="5.6"/>
	<circle style="fill:#C6DDE5;" cx="356" cy="298.4" r="5.6"/>
	<circle style="fill:#C6DDE5;" cx="356" cy="336.8" r="5.6"/>
	<circle style="fill:#C6DDE5;" cx="356" cy="374.4" r="5.6"/>
	<circle style="fill:#C6DDE5;" cx="356" cy="412.8" r="5.6"/>
	<path style="fill:#C6DDE5;" d="M393.6,30.4c0,3.2-2.4,5.6-5.6,5.6s-5.6-2.4-5.6-5.6c0-3.2,2.4-5.6,5.6-5.6
		C391.2,24.8,393.6,27.2,393.6,30.4z"/>
	<path style="fill:#C6DDE5;" d="M393.6,68.8c0,3.2-2.4,5.6-5.6,5.6s-5.6-2.4-5.6-5.6s2.4-5.6,5.6-5.6
		C391.2,62.4,393.6,65.6,393.6,68.8z"/>
	<path style="fill:#C6DDE5;" d="M393.6,106.4c0,3.2-2.4,5.6-5.6,5.6s-5.6-2.4-5.6-5.6s2.4-5.6,5.6-5.6S393.6,104,393.6,106.4z"/>
	<path style="fill:#C6DDE5;" d="M393.6,144.8c0,3.2-2.4,5.6-5.6,5.6s-5.6-2.4-5.6-5.6s2.4-5.6,5.6-5.6S393.6,141.6,393.6,144.8z"/>
	<path style="fill:#C6DDE5;" d="M393.6,183.2c0,3.2-2.4,5.6-5.6,5.6s-5.6-2.4-5.6-5.6s2.4-5.6,5.6-5.6
		C391.2,177.6,393.6,180,393.6,183.2z"/>
	<path style="fill:#C6DDE5;" d="M393.6,221.6c0,3.2-2.4,5.6-5.6,5.6s-5.6-2.4-5.6-5.6s2.4-5.6,5.6-5.6S393.6,218.4,393.6,221.6z"/>
	<path style="fill:#C6DDE5;" d="M393.6,260c0,3.2-2.4,5.6-5.6,5.6s-5.6-2.4-5.6-5.6s2.4-5.6,5.6-5.6S393.6,256.8,393.6,260z"/>
	<path style="fill:#C6DDE5;" d="M393.6,298.4c0,3.2-2.4,5.6-5.6,5.6s-5.6-2.4-5.6-5.6s2.4-5.6,5.6-5.6S393.6,295.2,393.6,298.4z"/>
	<path style="fill:#C6DDE5;" d="M393.6,336.8c0,3.2-2.4,5.6-5.6,5.6s-5.6-2.4-5.6-5.6s2.4-5.6,5.6-5.6
		C391.2,331.2,393.6,333.6,393.6,336.8z"/>
	<path style="fill:#C6DDE5;" d="M393.6,374.4c0,3.2-2.4,5.6-5.6,5.6s-5.6-2.4-5.6-5.6s2.4-5.6,5.6-5.6S393.6,372,393.6,374.4z"/>
	<path style="fill:#C6DDE5;" d="M393.6,412.8c0,3.2-2.4,5.6-5.6,5.6s-5.6-2.4-5.6-5.6s2.4-5.6,5.6-5.6
		C391.2,407.2,393.6,409.6,393.6,412.8z"/>
	<circle style="fill:#C6DDE5;" cx="420" cy="30.4" r="5.6"/>
	<circle style="fill:#C6DDE5;" cx="420" cy="68.8" r="5.6"/>
	<circle style="fill:#C6DDE5;" cx="420" cy="106.4" r="5.6"/>
	<circle style="fill:#C6DDE5;" cx="420" cy="144.8" r="5.6"/>
	<circle style="fill:#C6DDE5;" cx="420" cy="183.2" r="5.6"/>
	<circle style="fill:#C6DDE5;" cx="420" cy="221.6" r="5.6"/>
	<circle style="fill:#C6DDE5;" cx="420" cy="260" r="5.6"/>
	<circle style="fill:#C6DDE5;" cx="420" cy="298.4" r="5.6"/>
	<circle style="fill:#C6DDE5;" cx="420" cy="336.8" r="5.6"/>
	<circle style="fill:#C6DDE5;" cx="420" cy="374.4" r="5.6"/>
	<circle style="fill:#C6DDE5;" cx="420" cy="412.8" r="5.6"/>
	<circle style="fill:#C6DDE5;" cx="452" cy="30.4" r="5.6"/>
	<circle style="fill:#C6DDE5;" cx="452" cy="68.8" r="5.6"/>
	<circle style="fill:#C6DDE5;" cx="452" cy="106.4" r="5.6"/>
	<circle style="fill:#C6DDE5;" cx="452" cy="144.8" r="5.6"/>
	<circle style="fill:#C6DDE5;" cx="452" cy="183.2" r="5.6"/>
	<circle style="fill:#C6DDE5;" cx="452" cy="221.6" r="5.6"/>
	<circle style="fill:#C6DDE5;" cx="452" cy="260" r="5.6"/>
	<circle style="fill:#C6DDE5;" cx="452" cy="298.4" r="5.6"/>
	<circle style="fill:#C6DDE5;" cx="452" cy="336.8" r="5.6"/>
	<circle style="fill:#C6DDE5;" cx="452" cy="374.4" r="5.6"/>
	<circle style="fill:#C6DDE5;" cx="452" cy="412.8" r="5.6"/>
</g>
<path style="fill:#0CC69A;" d="M457.6,42.4c0,5.6-2.4,11.2-6.4,15.2L337.6,171.2h-31.2l-61.6-61.6L131.2,224
	c-8.8,8.8-22.4,8.8-31.2,0s-8.8-22.4,0-31.2L230.4,63.2h31.2l61.6,61.6L420,27.2c8.8-8.8,22.4-8.8,31.2,0
	C455.2,31.2,457.6,36.8,457.6,42.4z"/>
<path style="fill:#0AA397;" d="M463.2,14.4c-8.8-8.8-22.4-8.8-31.2,0L322.4,124.8L292,155.2l-61.6-61.6H200l-100,100
	c-8.8,8.8-8.8,22.4,0,31.2s22.4,8.8,31.2,0l84-84l30.4-30.4l61.6,61.6h31.2L463.2,45.6c4-4,6.4-9.6,6.4-15.2S468,19.2,463.2,14.4z"
	/>
<path style="fill:#0CC69A;" d="M480,22.4V96c0,12-9.6,21.6-21.6,21.6S436.8,108,436.8,96V44H384c-12,0-21.6-9.6-21.6-21.6
	S371.2,0,384,0h74.4C469.6,0,480,10.4,480,22.4z"/>
<path style="fill:#0AA397;" d="M361.6,22.4L361.6,22.4l73.6,0.8c12,0,21.6,9.6,21.6,21.6v73.6h0.8c12,0,21.6-9.6,21.6-21.6V22.4
	C480,10.4,469.6,0,457.6,0H384C371.2,0,361.6,10.4,361.6,22.4z"/>
<g>
</g>
<g>
</g>
<g>
</g>
<g>
</g>
<g>
</g>
<g>
</g>
<g>
</g>
<g>
</g>
<g>
</g>
<g>
</g>
<g>
</g>
<g>
</g>
<g>
</g>
<g>
</g>
<g>
</g>
</svg>
